<svg width="192.497055" height="46.546875" viewBox="0 0 192.497 46.5469" fill="none" xmlns="http://www.w3.org/2000/svg" xmlns:xlink="http://www.w3.org/1999/xlink">
	<desc>
			Created with Pixso.
	</desc>
	<defs/>
	<path id="hello again" d="M10.54 31.19Q11.45 31.89 12.92 31.89Q14.15 31.89 15.38 31.51Q16.63 31.13 17.35 30.77Q18.65 30.16 19.92 29.33Q21.2 28.51 22.3 27.65Q22.38 27.58 22.46 27.52Q22.35 27.98 22.35 28.43Q22.35 28.76 22.43 29.08Q22.52 29.48 22.73 29.85Q23.11 30.52 23.9 31.02Q24.52 31.38 25.26 31.56Q25.99 31.74 26.82 31.74Q28.4 31.74 30.05 31.24Q31.72 30.74 33.05 29.98Q33.66 29.62 34.59 28.99Q35.53 28.36 36.51 27.64Q37.51 26.92 38.28 26.24Q38.41 26.12 38.53 26.01Q38.67 26 38.77 25.95Q38.73 26.31 38.66 26.79Q38.59 27.28 38.59 27.82Q38.59 28.82 38.95 29.87Q39.07 30.2 39.25 30.48Q39.66 31.08 40.43 31.45Q41.4 31.93 42.84 31.93Q44.03 31.93 45.3 31.62Q45.5 31.57 45.69 31.52Q46.77 31.23 47.8 30.77Q48.17 30.6 48.54 30.41Q50.12 29.58 51.57 28.49Q53.12 27.31 54.46 26.02Q54.5 26.02 54.54 26.02Q54.76 26.02 54.9 25.95Q54.86 26.31 54.79 26.79Q54.72 27.28 54.72 27.82Q54.72 28.82 55.08 29.87Q55.19 30.2 55.38 30.48Q55.79 31.08 56.56 31.45Q57.53 31.93 58.97 31.93Q60.15 31.93 61.43 31.62Q61.63 31.57 61.82 31.52Q62.9 31.23 63.93 30.77Q64.3 30.6 64.67 30.41Q66.25 29.58 67.69 28.49Q68.26 28.06 68.79 27.62Q68.51 28.17 68.36 28.61Q68.3 28.75 68.27 28.9Q68.24 29.02 68.22 29.14Q68.19 29.4 68.19 29.69Q68.19 30.08 68.3 30.43Q68.43 30.86 68.74 31.24Q68.77 31.28 68.81 31.32Q69.38 31.93 70.59 31.93Q71.85 31.93 73.43 31.36Q75.02 30.81 76.55 29.82Q78.08 28.82 79.22 27.53Q80.35 26.24 80.71 24.76Q81.47 24.76 82.11 24.75Q82.76 24.73 83.23 24.68Q85.04 24.61 86.67 24.24Q88.3 23.86 89.1 23.5Q89.67 23.25 89.68 23L89.68 23Q89.68 22.96 89.66 22.93Q89.63 22.89 89.54 22.89Q89.39 22.89 89.13 23.03Q88.63 23.29 87.64 23.54Q86.65 23.79 85.48 23.95Q84.31 24.11 83.23 24.11Q82.69 24.11 82.07 24.13Q81.47 24.15 80.85 24.11Q80.93 23.61 80.85 23.14Q80.79 22.62 80.57 22.17Q80.33 21.65 79.88 21.23Q79.44 20.81 78.92 20.56Q78.46 20.34 77.94 20.26Q77.15 20.15 76.32 20.15Q75.67 20.15 75.08 20.21Q74.48 20.26 73.98 20.44Q73 20.73 72.54 21.21Q72.14 21.62 72.08 22.08Q72.07 22.16 72.07 22.24Q72.07 22.38 72.1 22.51Q72.18 22.93 72.54 23.29Q71.78 23.61 70.9 24.6Q70.45 25.11 70.05 25.65Q69.84 25.93 69.64 26.22Q69.54 26.3 69.43 26.38Q68.33 27.21 66.89 28.13Q65.44 29.04 63.9 29.83Q62.85 30.34 61.58 30.81Q60.3 31.28 59.15 31.28Q57.87 31.28 57.18 30.63Q56.96 30.43 56.8 30.16Q56.63 29.86 56.51 29.55Q56.16 28.68 56.16 27.67Q56.16 27.07 56.27 26.43Q56.37 25.8 56.52 25.3Q57.24 24.87 58.61 24.08Q59.98 23.29 61.75 22.08Q63.54 20.87 65.44 19.22Q66.63 18.17 68.12 16.77Q69.62 15.37 71.04 13.62Q72.47 11.87 73.41 9.93Q74.3 8.05 74.3 6.87Q74.3 6.05 73.9 5.58Q73.89 5.58 73.89 5.58Q73.83 5.51 73.77 5.45Q73.36 5.1 72.65 5.1Q70.88 5.1 69.1 6.11Q67.32 7.12 65.6 8.76Q63.9 10.39 62.39 12.3Q60.87 14.21 59.65 16.04Q58.43 17.88 57.63 19.22Q56.56 21.02 55.98 22.55Q55.43 24.01 55.14 24.96Q55.14 24.95 55.13 24.94Q55.12 24.94 55.12 24.94Q55.05 24.94 54.9 25.08Q54.4 25.55 53.3 26.38Q52.2 27.21 50.76 28.13Q49.32 29.04 47.77 29.83Q46.72 30.34 45.45 30.81Q44.17 31.28 43.02 31.28Q41.74 31.28 41.05 30.63Q40.83 30.43 40.68 30.16Q40.51 29.86 40.38 29.55Q40.03 28.68 40.03 27.67Q40.03 27.07 40.14 26.43Q40.25 25.8 40.4 25.3Q41.11 24.87 42.48 24.08Q43.85 23.29 45.62 22.08Q47.41 20.87 49.32 19.22Q50.5 18.17 52 16.77Q53.49 15.37 54.91 13.62Q56.34 11.87 57.28 9.93Q58.18 8.05 58.18 6.87Q58.18 6.05 57.77 5.58Q57.77 5.58 57.76 5.58Q57.71 5.51 57.64 5.45Q57.24 5.1 56.52 5.1Q54.76 5.1 52.97 6.11Q51.19 7.12 49.47 8.76Q47.77 10.39 46.26 12.3Q44.75 14.21 43.52 16.04Q42.3 17.88 41.5 19.22Q40.43 21.02 39.85 22.55Q39.33 23.95 39.04 24.88Q37.63 26.1 35.89 27.32Q34.09 28.58 32.16 29.55Q30.24 30.52 28.37 30.91Q28.01 30.99 27.58 31.02Q27.14 31.06 26.71 31.06Q25.84 31.06 25.04 30.86Q24.23 30.66 23.7 30.18Q23.53 30.02 23.41 29.82Q23.18 29.43 23.18 28.9Q23.18 28.54 23.3 28.18Q23.44 27.82 23.61 27.46Q25.51 27.19 27.31 26.63Q27.94 26.44 28.56 26.2Q30.96 25.3 32.37 24.18Q33.16 23.57 33.57 22.96Q33.87 22.51 33.95 22.03Q33.98 21.85 33.98 21.66Q33.98 21.41 33.91 21.18Q33.81 20.89 33.6 20.64Q33.23 20.18 32.04 20.18Q31.32 20.18 30.38 20.4Q29.45 20.62 28.51 21.12Q26.93 21.95 25.5 23.2Q24.09 24.44 23.22 25.81Q23.01 26.14 22.85 26.46Q21.8 27.27 20.59 28.08Q18.97 29.15 17.39 29.9Q16.17 30.59 15.16 30.88Q14.15 31.17 13.32 31.17Q12.09 31.17 11.36 30.57Q11.13 30.38 10.95 30.12Q10.87 30.01 10.79 29.9Q10.19 28.92 10.19 27.57Q10.19 26.41 10.59 25.16Q10.59 25.14 10.6 25.12Q10.99 23.88 11.74 22.74Q11.81 22.64 11.88 22.41Q11.95 22.17 11.95 21.95Q11.95 21.84 11.88 21.7Q11.67 21.41 11.5 21.2Q11.34 20.98 11.16 20.83Q13.13 20.23 15.26 19.27Q17.39 18.31 19.23 17.05Q21.13 15.76 22.97 14.22Q24.81 12.66 26.3 10.92Q27.79 9.17 28.69 7.25Q29.29 5.96 29.49 4.61Q29.59 3.94 29.59 3.26Q29.59 2.06 29.02 1.24Q28.9 1.06 28.74 0.89Q27.9 0 26.1 0Q24.19 0 22.17 1.04Q20.16 2.08 18.16 3.83Q16.17 5.57 14.27 7.68Q12.38 9.79 10.74 11.95Q9.11 14.1 7.83 15.99Q6.55 17.88 5.74 19.16Q4.93 20.44 4.71 20.76Q4.42 20.58 4.32 20.33Q4.22 20.26 4.15 20.28Q4.12 20.29 4.1 20.32Q4.06 20.36 4.06 20.41Q4.05 20.46 4.06 20.51Q4.06 20.58 4.13 20.76Q4.21 20.94 4.46 21.12Q3.53 22.6 2.48 24.3Q1.44 25.98 0.72 27.53Q0 29.08 0 30.16Q0 30.59 0.14 30.88Q0.32 31.28 0.61 31.45Q0.9 31.64 1.16 31.64Q1.48 31.64 1.62 31.48Q1.73 31.35 1.73 31.13Q1.73 30.91 1.59 30.66Q2.16 30.34 3.12 29.5Q4.1 28.65 5.27 27.53Q6.45 26.41 7.52 25.26Q8.6 24.11 9.4 23.14Q9.15 24.01 9.01 24.89Q9 24.93 9 24.96Q8.85 25.88 8.85 26.78Q8.85 28.15 9.25 29.32Q9.54 30.18 10.11 30.79Q10.31 31 10.54 31.19ZM8.03 20.69Q6.52 21.05 5.76 21.05Q6.48 19.82 7.86 17.95Q9.25 16.08 10.96 13.93Q12.67 11.76 14.29 9.79Q15.12 8.81 16.25 7.62Q17.39 6.44 18.72 5.27Q20.05 4.1 21.38 3.12Q22.71 2.15 23.94 1.56Q25.17 0.96 26.1 0.96Q27.63 0.96 28.26 1.71Q28.69 2.24 28.69 3.12Q28.69 4.6 28.01 6.13Q27.32 7.66 26.2 9.12Q25.09 10.58 23.75 11.9Q22.42 13.21 21.12 14.27Q19.83 15.32 18.79 16.04Q17.17 17.16 15.23 18.08Q13.28 19 11.41 19.66Q9.54 20.33 8.03 20.69ZM41.85 23.66Q41 24.18 40.71 24.32Q41.22 23.03 42.08 21.33Q42.94 19.61 44.1 17.74Q45.25 15.87 46.58 14.05Q47.92 12.23 49.35 10.72Q50.55 9.5 51.79 8.43Q53.03 7.37 54.14 6.73Q55.26 6.08 55.98 6.08Q56.33 6.08 56.54 6.25Q56.87 6.51 56.87 7.19Q56.87 8.34 56.28 9.66Q55.69 10.97 54.73 12.29Q54.3 12.89 53.84 13.46Q53.29 14.15 52.7 14.8Q51.62 16.01 50.61 16.98Q49.61 17.95 48.92 18.57Q47.73 19.61 46.42 20.59Q45.11 21.55 43.9 22.35Q42.7 23.14 41.85 23.66ZM57.97 23.66Q57.13 24.18 56.84 24.32Q57.35 23.03 58.21 21.33Q59.07 19.61 60.22 17.74Q61.37 15.87 62.71 14.05Q64.05 12.23 65.48 10.72Q66.67 9.5 67.91 8.43Q69.15 7.37 70.27 6.73Q71.39 6.08 72.11 6.08Q72.46 6.08 72.67 6.25Q73 6.51 73 7.19Q73 8.34 72.41 9.66Q71.82 10.97 70.86 12.29Q70.43 12.89 69.97 13.46Q69.42 14.15 68.83 14.8Q67.75 16.01 66.74 16.98Q65.73 17.95 65.05 18.57Q63.86 19.61 62.54 20.59Q61.23 21.55 60.03 22.35Q58.83 23.14 57.97 23.66ZM166.05 18.97Q166.21 19.11 166.5 19.11Q166.86 19.11 167.23 18.82Q167.36 18.73 167.46 18.62Q167.67 18.38 167.8 18.07Q167.94 17.78 168.33 17.56Q168.73 17.34 169.09 17.2Q169.45 17.05 169.45 16.98L169.45 16.98Q169.45 16.95 169.12 16.95Q168.73 16.95 168.03 17.04Q167.33 17.12 166.72 17.33Q166.1 17.52 165.99 17.81Q165.85 18.1 165.85 18.39Q165.85 18.79 166.05 18.97ZM107.78 31.33Q108.47 31.67 109.34 31.67Q110.01 31.67 110.72 31.5Q111.42 31.35 111.96 31.17Q113.4 30.66 114.82 29.78Q116.24 28.9 117.47 27.95Q117.85 27.65 118.19 27.37Q117.72 28.38 117.72 29.26Q117.72 29.7 117.86 30.08Q117.95 30.33 118.11 30.55Q118.43 31.01 118.87 31.23Q118.88 31.24 118.88 31.24Q119.3 31.43 119.72 31.45Q119.76 31.45 119.81 31.45Q120.78 31.45 121.9 30.81Q123.02 30.16 124.11 29.23Q125.2 28.29 126.08 27.39Q126.97 26.49 127.47 25.95Q127.59 25.73 127.91 25.52Q128.23 25.95 128.23 26.85Q128.23 27.89 127.83 29.33Q127.6 30.17 127.28 30.97Q127.04 31.54 126.76 32.1L125.89 32.39Q123.45 33.15 120.87 33.94Q118.3 34.73 115.65 35.83Q113 36.93 110.31 38.54Q108.21 39.84 107.2 41.29Q106.17 42.73 106.17 43.98Q106.17 44.63 106.45 45.1Q106.58 45.31 106.76 45.49Q106.77 45.49 106.78 45.5Q107.36 46.07 108.28 46.3Q108.93 46.47 109.58 46.52Q109.85 46.54 110.12 46.54Q112.75 46.54 115.38 45.35Q118.01 44.16 120.41 42.16Q120.47 42.12 120.52 42.08Q122.87 40.12 124.81 37.65Q126.79 35.12 128.12 32.43L128.59 32.32Q131.83 31.35 135.05 29.62Q136.53 28.83 137.85 27.88Q137.52 28.67 137.52 29.37Q137.52 30.06 137.85 30.52Q137.91 30.61 137.99 30.7Q138.31 31.07 138.71 31.26Q139.17 31.5 139.75 31.5Q140.83 31.5 142.05 30.84Q143.28 30.19 144.45 29.28Q145.62 28.36 146.55 27.46Q147.49 26.56 147.96 26.02Q147.67 26.74 147.44 27.55Q147.2 28.36 147.16 29.11Q147.16 30.45 147.83 31.02Q147.89 31.08 147.97 31.13Q148.14 31.24 148.31 31.33Q149.01 31.67 149.87 31.67Q150.55 31.67 151.25 31.5Q151.95 31.35 152.5 31.17Q153.93 30.66 155.36 29.78Q156.78 28.9 158 27.95Q158.22 27.78 158.43 27.62Q158.41 27.65 158.39 27.68Q157.94 28.55 157.87 29.44Q157.86 29.62 157.86 29.8Q157.86 30.46 158.18 30.86Q158.35 31.06 158.61 31.19Q159.37 31.57 160.38 31.57Q161.53 31.57 162.77 31.24Q164.02 30.91 164.7 30.62Q165.99 30.05 167.23 29.25Q168.48 28.43 169.5 27.6Q170.53 26.78 171.22 26.11Q171.9 25.44 172.11 25.16Q172.26 24.97 172.26 24.87Q172.26 24.82 172.24 24.79Q172.21 24.76 172.15 24.76Q172.04 24.76 171.97 24.8Q170.35 26.09 168.84 27.37Q168.14 27.96 167.39 28.47Q166.51 29.06 165.56 29.54Q164.45 30.12 163.16 30.54Q162.4 30.78 161.63 30.88Q161.1 30.95 160.56 30.95Q159.39 30.95 159.06 30.42Q158.94 30.22 158.94 29.94Q158.94 29.01 160.27 27.31Q160.63 26.88 161.26 26.22Q161.89 25.55 162.61 24.87Q163.33 24.18 163.94 23.65Q164.55 23.1 164.84 22.89Q164.98 22.78 165.12 22.6Q165.27 22.42 165.27 22.24Q165.27 22.16 165.25 22.09Q165.17 21.87 164.86 21.74Q164.45 21.55 164.05 21.55Q163.87 21.55 163.66 21.62Q162.83 21.99 162.39 22.57Q162.07 22.99 162.17 23.14Q162.2 23.19 162.28 23.21Q161.92 23.53 161.19 24.2Q160.45 24.87 159.69 25.76Q159.64 25.82 159.58 25.88Q159.57 25.9 159.55 25.91Q158 27.21 156.09 28.47Q154.19 29.73 152.28 30.45Q150.51 31.1 149.62 31.1Q148.97 31.1 148.67 30.78Q148.43 30.51 148.43 30.02Q148.43 29.33 148.83 28.32Q149.22 27.31 149.83 26.05Q149.98 25.73 150.06 25.47Q150.15 25.19 150.15 25.01Q150.15 24.87 150.09 24.78Q150.07 24.75 150.05 24.73Q150.02 24.71 149.99 24.69Q149.68 24.47 149.22 24.47Q149.06 24.47 148.92 24.53Q148.87 24.55 148.83 24.58Q147.71 25.59 146.27 26.76Q144.83 27.93 143.67 28.9Q143.39 29.15 142.66 29.66Q141.94 30.16 141.1 30.55Q140.26 30.95 139.61 30.95Q139.26 30.95 139.02 30.79Q138.96 30.75 138.9 30.7Q138.64 30.45 138.64 29.8L138.64 29.62Q138.64 29.54 138.66 29.45Q138.67 29.43 138.67 29.4Q138.78 28.65 139.42 27.73Q140.07 26.81 141.05 25.84Q141.82 25.07 142.69 24.41Q142.91 24.24 143.14 24.08Q143.78 23.57 144.77 23.07Q145.77 22.57 146.84 22.15Q147.92 21.74 148.87 21.47Q149.83 21.19 150.48 21.19Q151.2 21.19 151.49 21.54Q151.5 21.55 151.51 21.57Q151.78 21.9 151.78 22.45L151.78 22.8Q151.78 22.9 151.76 23Q151.74 23.09 151.7 23.17Q151.62 23.48 151.71 23.55Q151.74 23.57 151.78 23.57Q151.88 23.57 152.08 23.32Q152.28 23.07 152.35 22.64Q152.39 22.42 152.4 22.22Q152.42 22.02 152.42 21.84Q152.42 20.96 151.98 20.45Q151.39 19.75 149.98 19.75Q148.53 19.75 146.59 20.44Q144.79 21.05 143.15 22.13Q141.51 23.21 140.26 24.49Q139.41 25.35 138.79 26.22Q137.3 27.46 135.01 28.68Q132.19 30.19 128.59 31.5Q129.31 29.9 129.63 28.56Q129.96 27.21 129.96 26.24Q129.96 24.75 129.28 24.32Q129.01 24.15 128.63 24.15Q127.91 24.15 127.6 24.4Q127.3 24.64 127.3 24.89L127.3 24.9Q127.3 25.14 127.39 25.19Q127.4 25.19 127.4 25.19Q126.4 26.09 125.34 27.01Q124.27 27.93 123.3 28.75Q123.02 29.01 122.31 29.55Q121.61 30.09 120.84 30.54Q120.06 30.99 119.48 30.99Q119.19 30.99 119.01 30.85Q118.69 30.6 118.69 29.94L118.69 29.73Q118.69 29.62 118.73 29.47Q118.88 28.51 119.74 27.25Q120.6 25.98 121.86 24.8Q123.12 23.61 124.47 22.84Q125.82 22.06 126.94 22.06Q127.59 22.06 127.9 22.35Q128.23 22.64 128.32 22.98Q128.41 23.32 128.41 23.5Q128.41 23.71 128.5 23.77Q128.54 23.79 128.59 23.79Q128.7 23.79 128.82 23.63Q128.83 23.63 128.83 23.62Q128.95 23.46 128.95 23.21L128.95 23.1Q128.86 22.43 128.49 22Q128.25 21.72 127.88 21.55Q127.43 21.34 126.95 21.23Q126.47 21.12 125.96 21.12Q125.53 21.12 125.15 21.19Q124.77 21.26 124.45 21.38Q123.45 21.74 122.27 22.6Q121.1 23.46 120.07 24.61Q119.54 25.22 119.1 25.85Q119.05 25.88 119.01 25.91Q117.47 27.21 115.56 28.47Q113.65 29.73 111.74 30.45Q109.98 31.1 109.08 31.1Q108.43 31.1 108.14 30.78Q107.89 30.51 107.89 30.02Q107.89 29.33 108.29 28.32Q108.69 27.31 109.29 26.05Q109.44 25.73 109.53 25.47Q109.62 25.19 109.62 25.01Q109.62 24.87 109.55 24.78Q109.54 24.75 109.51 24.73Q109.48 24.71 109.46 24.69Q109.15 24.47 108.69 24.47Q108.52 24.47 108.38 24.53Q108.34 24.55 108.29 24.58Q107.17 25.59 105.73 26.76Q104.29 27.93 103.14 28.9Q102.85 29.15 102.13 29.66Q101.41 30.16 100.56 30.55Q99.72 30.95 99.07 30.95Q98.73 30.95 98.48 30.79Q98.42 30.75 98.37 30.7Q98.1 30.45 98.1 29.8L98.1 29.62Q98.1 29.54 98.12 29.45Q98.13 29.43 98.14 29.4Q98.24 28.65 98.88 27.73Q99.54 26.81 100.51 25.84Q101.29 25.07 102.15 24.41Q102.38 24.24 102.6 24.08Q103.24 23.57 104.24 23.07Q105.23 22.57 106.3 22.15Q107.38 21.74 108.33 21.47Q109.29 21.19 109.94 21.19Q110.66 21.19 110.95 21.54Q110.97 21.55 110.98 21.57Q111.24 21.9 111.24 22.45L111.24 22.8Q111.24 22.9 111.22 23Q111.2 23.09 111.16 23.17Q111.08 23.48 111.17 23.55Q111.2 23.57 111.24 23.57Q111.35 23.57 111.54 23.32Q111.74 23.07 111.81 22.64Q111.85 22.42 111.87 22.22Q111.88 22.02 111.88 21.84Q111.88 20.96 111.45 20.45Q110.85 19.75 109.44 19.75Q108 19.75 106.06 20.44Q104.26 21.05 102.61 22.13Q100.98 23.21 99.72 24.49Q98.46 25.76 97.72 27.05Q96.99 28.32 96.99 29.37Q96.99 30.06 97.31 30.52Q97.37 30.61 97.45 30.7Q97.77 31.07 98.17 31.26Q98.64 31.5 99.22 31.5Q100.29 31.5 101.51 30.84Q102.74 30.19 103.91 29.28Q105.08 28.36 106.01 27.46Q106.95 26.56 107.42 26.02Q107.14 26.74 106.9 27.55Q106.66 28.36 106.63 29.11Q106.63 30.45 107.29 31.02Q107.36 31.08 107.44 31.13Q107.6 31.24 107.78 31.33ZM168.63 32.3Q168.73 32.39 168.91 32.39Q169.09 32.39 169.55 31.86Q170.03 31.35 170.71 30.57Q171.4 29.8 172.15 29.08Q173.05 28.22 174.05 27.29Q175.06 26.34 175.94 25.57Q176.83 24.8 177.23 24.54Q177.66 24.25 178.21 23.95Q178.77 23.65 179.17 23.65Q179.38 23.65 179.51 23.74Q179.78 23.94 179.78 24.51L179.78 24.75Q179.78 24.87 179.75 25.01Q179.64 25.73 179.34 26.43Q179.03 27.14 178.77 27.82Q178.41 28.79 178.41 29.51Q178.41 30.34 178.82 30.81Q178.98 31 179.2 31.13Q180 31.6 181.08 31.6Q181.73 31.6 182.43 31.47Q183.13 31.35 183.78 31.17Q185.22 30.66 186.64 29.78Q188.06 28.9 189.28 27.95Q190.52 27 191.34 26.22Q192.17 25.44 192.39 25.16Q192.49 24.97 192.49 24.87Q192.49 24.82 192.47 24.79Q192.44 24.76 192.39 24.76Q192.35 24.76 192.31 24.77Q192.27 24.78 192.24 24.8Q191.88 25.16 191.55 25.38Q191.24 25.59 190.83 25.91Q189.28 27.21 187.38 28.47Q185.47 29.73 183.56 30.45Q182.34 30.88 181.55 30.88Q180.76 30.88 180.38 30.49L180.38 30.48Q180.33 30.44 180.29 30.38Q180 30 180 29.4Q180 28.94 180.14 28.38Q180.28 27.82 180.54 27.24Q180.86 26.49 181.13 25.59Q181.4 24.68 181.4 24.01Q181.4 23.21 181.06 22.91Q180.94 22.8 180.81 22.74Q180.55 22.6 180.21 22.6Q179.64 22.6 179.03 22.84Q178.41 23.07 178.02 23.32Q177.05 23.97 175.77 25.02Q174.49 26.05 173.23 27.21Q171.97 28.36 170.98 29.32Q169.99 30.26 169.56 30.77Q169.74 30.52 170.51 29.57Q171.28 28.61 172.26 27.5Q173.16 26.45 174.02 25.52Q174.3 25.21 174.56 24.88Q175.1 24.21 175.54 23.46Q175.93 22.81 175.93 22.28Q175.93 21.95 175.81 21.68Q175.77 21.6 175.71 21.52Q175.5 21.19 175.28 20.94Q175.03 20.62 174.74 20.37Q174.46 20.11 174.2 19.97Q173.95 19.79 173.77 19.79Q173.71 19.79 173.67 19.82Q173.63 19.86 173.63 19.94Q173.63 19.97 173.64 20.01Q173.67 20.29 173.99 20.54Q174.09 20.61 174.16 20.7Q174.39 20.98 174.39 21.45Q174.39 22.06 174.01 22.86Q173.63 23.65 173.09 24.46Q172.55 25.26 172.04 25.95Q171.54 26.63 171.25 27.03Q170.82 27.64 170.17 28.61Q169.53 29.58 169.02 30.52Q168.52 31.45 168.52 31.96Q168.52 32.19 168.63 32.3ZM2.57 29.04Q1.76 29.73 1.44 29.9Q1.33 29.37 1.66 28.44Q1.98 27.5 2.61 26.33Q3.24 25.16 4.01 23.92Q4.79 22.67 5.54 21.55L5.58 21.55Q5.8 21.59 6.04 21.61Q6.3 21.62 6.55 21.62Q8.1 21.62 10.19 21.09Q10.11 21.19 10.04 21.36Q9.97 21.52 9.9 21.7Q9.4 22.28 8.49 23.23Q7.6 24.18 6.53 25.26Q5.47 26.34 4.42 27.36Q3.38 28.36 2.57 29.04ZM80.06 22.89Q80.06 23.43 79.85 24.04Q78.51 23.97 77.12 23.75Q75.75 23.53 74.52 23.14Q73.78 22.92 73.7 22.55Q73.69 22.5 73.69 22.45Q73.69 22.44 73.69 22.42Q73.72 21.94 74.8 21.52Q75.92 21.09 77.36 21.09Q78.87 21.09 79.46 21.62Q79.8 21.91 79.95 22.28Q80.06 22.56 80.06 22.89ZM25.91 26.36Q24.76 26.67 23.94 26.85Q24.59 25.88 25.59 24.93Q26.43 24.14 27.35 23.46Q27.54 23.32 27.73 23.18Q28.87 22.38 29.91 21.91Q30.96 21.45 31.72 21.45Q32.37 21.45 32.58 21.65Q32.69 21.75 32.74 21.88Q32.8 21.99 32.8 22.13Q32.8 22.17 32.79 22.2Q32.77 22.81 32.22 23.39Q31.64 24.04 30.6 24.6Q29.55 25.16 28.31 25.61Q27.07 26.05 25.91 26.36ZM70.91 31.26Q70.74 31.28 70.56 31.28Q69.8 31.28 69.5 30.9Q69.3 30.66 69.3 30.26Q69.3 29.51 69.89 28.49Q70.49 27.46 71.33 26.48Q72.18 25.48 73 24.83Q73.84 24.18 74.3 24.18Q74.34 24.22 74.41 24.22Q74.52 24.28 74.55 24.26Q74.56 24.25 74.56 24.25Q75.56 24.51 76.82 24.62Q78.08 24.73 79.52 24.73Q79.16 25.48 78.6 26.2Q78.05 26.92 77.5 27.43Q76.5 28.36 75.33 29.19Q74.16 30.02 73.1 30.54Q72.04 31.06 71.32 31.21Q71.1 31.24 70.91 31.26ZM110.73 46.02Q110.32 46.06 109.91 46.07Q108.58 46.07 107.82 45.55Q107.4 45.26 107.21 44.86Q107.06 44.54 107.06 44.16Q107.06 43.23 108.07 41.93Q109.08 40.64 111.27 39.19Q111.97 38.73 112.68 38.31Q114.09 37.47 115.58 36.78Q117.83 35.74 120.46 34.83Q123.09 33.94 126.25 33.01Q125.06 35.2 123.3 37.48Q122.27 38.82 121.11 40.04Q120.29 40.9 119.39 41.7Q117.25 43.62 114.83 44.83Q112.82 45.84 110.73 46.02Z" fill="#000000" fill-opacity="1.000000" fill-rule="evenodd"/>
</svg>
